<?xml version="1.0" standalone="no"?>
<!DOCTYPE svg PUBLIC "-//W3C//DTD SVG 20010904//EN"
 "http://www.w3.org/TR/2001/REC-SVG-20010904/DTD/svg10.dtd">
<svg version="1.0" xmlns="http://www.w3.org/2000/svg"
 width="2000.000000pt" height="489.000000pt" viewBox="0 0 2000.000000 489.000000"
 preserveAspectRatio="xMidYMid meet">

<g transform="translate(0.000000,489.000000) scale(0.100000,-0.100000)"
fill="#000000" stroke="none">
<path d="M10410 4195 c-177 -37 -307 -116 -400 -243 -108 -146 -140 -279 -140
-578 l0 -194 -150 0 -150 0 0 -205 0 -205 150 0 150 0 0 -1010 0 -1010 280 0
280 0 0 1010 0 1010 200 0 c199 0 200 0 205 23 3 12 18 104 33 205 l29 182
-235 0 -234 0 4 218 c4 239 10 267 70 329 71 74 233 84 403 25 49 -17 93 -28
97 -24 3 4 39 83 78 176 83 196 87 176 -44 227 -154 59 -217 71 -396 75 -114
2 -185 -1 -230 -11z"/>
<path d="M13578 4181 l-238 -25 0 -1511 c0 -1648 -2 -1569 57 -1693 35 -72
151 -190 216 -220 92 -43 162 -55 292 -50 97 4 136 10 202 33 46 15 89 33 97
39 14 11 13 16 -78 328 l-16 58 -59 -7 c-78 -8 -108 1 -131 40 -20 31 -20 58
-20 1535 l0 1502 -42 -1 c-24 -1 -150 -13 -280 -28z"/>
<path d="M30 2335 l0 -1585 790 0 790 0 0 215 0 215 -500 0 -500 0 2 483 3
482 407 3 408 2 0 210 0 210 -407 2 -408 3 -3 458 -2 457 470 0 c258 0 470 2
470 5 0 9 49 366 55 398 l4 27 -789 0 -790 0 0 -1585z"/>
<path d="M8623 3747 l-243 -30 0 -268 0 -269 -140 0 -140 0 0 -205 0 -205 140
0 140 0 0 -737 c0 -783 3 -850 48 -976 50 -139 143 -247 266 -307 116 -58 200
-73 371 -68 125 4 150 8 235 37 93 31 214 95 239 125 11 13 -3 43 -84 185
l-97 169 -71 -34 c-117 -56 -240 -46 -299 24 -14 17 -31 54 -37 82 -7 34 -11
291 -11 775 l0 725 204 0 203 0 27 193 c14 106 26 198 26 205 0 9 -55 12 -230
12 l-230 0 0 300 0 300 -37 -1 c-21 -1 -147 -15 -280 -32z"/>
<path d="M4627 3225 c-469 -89 -747 -565 -747 -1280 0 -362 71 -660 208 -870
124 -190 284 -307 498 -365 101 -28 334 -38 455 -20 199 29 398 121 548 254
l48 43 -108 147 c-59 82 -111 152 -116 157 -5 5 -49 -17 -106 -55 -114 -75
-211 -113 -325 -128 -186 -24 -335 37 -422 172 -56 88 -104 279 -112 450 l-2
55 627 3 626 2 5 33 c30 198 2 549 -60 764 -54 187 -136 326 -262 444 -92 86
-182 137 -307 174 -114 34 -324 43 -448 20z m292 -391 c153 -45 232 -221 248
-546 l6 -138 -367 0 -366 0 4 23 c3 12 8 63 11 112 23 323 113 507 275 556 43
13 134 10 189 -7z"/>
<path d="M7082 3220 c-40 -11 -96 -32 -125 -47 -68 -37 -197 -160 -258 -247
-29 -41 -50 -63 -53 -55 -3 8 -13 80 -22 162 l-18 147 -243 0 -243 0 0 -1215
0 -1215 280 0 280 0 0 853 0 853 58 94 c105 171 216 260 323 260 94 0 141 -37
175 -140 17 -52 19 -113 22 -987 l3 -933 279 0 280 0 0 918 c0 918 -3 1017
-36 1146 -48 186 -179 341 -335 396 -93 32 -267 37 -367 10z"/>
<path d="M1764 3163 c3 -10 147 -549 321 -1198 174 -649 318 -1188 321 -1197
5 -17 30 -18 340 -18 184 0 334 3 334 6 0 5 614 2366 626 2407 5 16 -12 17
-270 17 -253 0 -275 -1 -280 -17 -2 -10 -96 -456 -207 -990 -112 -535 -206
-969 -209 -965 -4 4 -69 315 -144 692 -76 377 -165 819 -199 983 l-60 297
-289 0 c-271 0 -289 -1 -284 -17z"/>
<path d="M11150 2213 c0 -912 1 -973 19 -1060 48 -234 198 -406 396 -458 76
-19 233 -19 310 0 144 37 281 140 386 288 55 78 53 79 64 -53 3 -41 8 -99 11
-128 l6 -52 244 0 244 0 0 1215 0 1215 -280 0 -280 0 0 -877 0 -878 -50 -85
c-57 -96 -135 -181 -195 -213 -57 -30 -181 -31 -222 -1 -41 30 -70 78 -82 135
-7 34 -11 356 -11 984 l0 935 -280 0 -280 0 0 -967z"/>
</g>
</svg>
